<svg version="1.1" id="Layer_1" xmlns="http://www.w3.org/2000/svg" xmlns:xlink="http://www.w3.org/1999/xlink" x="0px" y="0px"
	 width="100%" viewBox="0 0 288 288" enable-background="new 0 0 288 288" xml:space="preserve">
<path fill="#000000" opacity="1.000000" stroke="none" 
	d="
M131.690231,282.999390 
	C130.131744,283.123718 128.970734,283.235748 127.816444,283.187286 
	C127.403206,283.169952 127.006248,282.764954 126.304298,282.369110 
	C127.580269,279.267761 130.065002,276.850952 130.703934,273.509308 
	C131.505768,269.315674 130.560577,266.859528 126.068336,265.185364 
	C89.753296,251.651382 65.833466,226.047348 54.539272,189.156357 
	C39.260326,139.249680 66.838020,81.927727 115.159126,61.942055 
	C116.306847,61.467358 117.457695,60.426868 119.152267,61.600559 
	C117.202484,64.335464 114.061226,65.208649 111.450401,66.681465 
	C74.766815,87.375404 53.258240,129.699371 58.908199,171.588852 
	C64.245003,211.156509 86.043594,238.738525 122.043579,255.308838 
	C131.165207,259.507385 131.754410,258.958557 131.758240,249.232086 
	C131.778656,197.413788 131.775192,145.595474 131.778946,93.777168 
	C131.779465,86.692101 131.776840,86.695320 139.006821,86.697273 
	C157.501511,86.702278 175.996262,86.681511 194.490768,86.741531 
	C196.383987,86.747665 198.467819,86.122116 200.185196,87.609665 
	C200.293564,89.558167 198.682785,89.657425 197.568375,90.124161 
	C188.720901,93.829567 179.661606,96.331139 169.899170,95.187378 
	C167.432419,94.898376 164.905121,95.084534 162.406479,95.116814 
	C152.149292,95.249321 147.386047,99.747879 147.275574,110.118279 
	C147.092804,127.277214 147.213531,144.439529 147.227814,161.600388 
	C147.252640,191.424820 147.286499,221.249268 147.344971,251.073654 
	C147.348785,253.019104 146.899948,255.077194 148.353394,257.029938 
	C170.705780,257.361176 190.346634,249.951050 207.521622,235.752777 
	C226.996872,219.652908 239.445206,199.044312 244.250259,174.393051 
	C249.170471,149.151047 242.406967,126.585968 225.477417,107.154167 
	C220.253647,101.158295 214.018295,96.181618 207.651382,90.321930 
	C211.359390,89.006348 213.021240,91.268631 214.772324,92.583458 
	C247.570969,117.210800 261.066772,158.035797 243.335464,198.526031 
	C227.898209,233.777786 201.780960,256.538727 163.700089,264.708954 
	C161.755402,265.126190 159.748413,265.247345 157.775070,265.537933 
	C152.792816,266.271576 148.574371,267.001892 146.469421,273.224365 
	C144.448898,279.197327 137.968506,281.232788 131.690231,282.999390 
z"/>
<path fill="#000000" opacity="1.000000" stroke="none" 
	d="
M157.539276,46.393501 
	C150.010864,34.487526 145.569839,22.043116 145.717911,7.917531 
	C148.534256,8.342795 148.812790,10.343716 149.455078,11.931000 
	C162.560730,44.318222 185.109894,66.908791 218.423645,78.219681 
	C222.106155,79.469986 222.162064,82.078049 221.989822,84.919861 
	C221.860107,87.059959 220.258102,86.948578 218.636597,86.494446 
	C194.147827,79.635887 172.308350,68.728798 157.539276,46.393501 
z"/>
<path fill="#000000" opacity="1.000000" stroke="none" 
	d="
M242.220764,177.978210 
	C232.710846,219.384018 187.956512,240.359924 164.092255,234.011459 
	C218.228119,225.492386 240.281509,191.031158 240.099472,138.732315 
	C244.669403,143.179443 245.752975,162.207458 242.220764,177.978210 
z"/>
<path fill="#000000" opacity="1.000000" stroke="none" 
	d="
M151.698639,159.999786 
	C154.534088,158.683014 157.212860,158.787338 159.870010,158.665939 
	C167.896454,158.299225 174.414398,154.733780 180.363312,147.675079 
	C181.991592,155.456207 180.933029,161.904022 181.178696,169.189529 
	C177.230499,167.371674 174.267410,165.653748 171.082214,164.620651 
	C165.813141,162.911591 160.275803,163.030487 154.782715,162.862213 
	C153.481979,162.822357 150.099274,164.086334 151.698639,159.999786 
z"/>
<path fill="#000000" opacity="1.000000" stroke="none" 
	d="
M189.961395,136.193115 
	C189.851105,142.288254 190.913239,148.102280 187.506393,153.888931 
	C185.281555,150.965149 186.136154,148.183151 185.802277,145.682419 
	C184.934357,139.181778 182.390457,136.287842 175.950851,135.009598 
	C170.038864,133.836075 164.029480,134.300812 158.072906,133.907150 
	C155.714218,133.751282 153.158127,133.921799 150.944687,132.491196 
	C151.899002,130.134995 153.804214,130.775864 155.311234,130.760529 
	C165.113007,130.660828 174.918777,130.785065 184.716690,130.555984 
	C188.595078,130.465317 190.339386,131.833267 189.961395,136.193115 
z"/>
</svg>